<?xml version="1.0" encoding="UTF-8"?>
<svg width="392px" height="310px" viewBox="0 0 392 310" version="1.1" xmlns="http://www.w3.org/2000/svg" xmlns:xlink="http://www.w3.org/1999/xlink">
    <!-- Generator: Sketch 60 (88103) - https://sketch.com -->
    <title>prestamos personales en linea subvertical</title>
    <desc>Created with Sketch.</desc>
    <defs>
        <polygon id="path-1" points="7.16356108e-05 0.146092575 172.713458 0.146092575 172.713458 112.856514 7.16356108e-05 112.856514"></polygon>
        <polygon id="path-3" points="0.216588121 0.0738697183 111.796664 0.0738697183 111.796664 98.2358838 0.216588121 98.2358838"></polygon>
        <polygon id="path-5" points="2.00803213e-05 0 100 0 100 52.1986118 2.00803213e-05 52.1986118"></polygon>
        <polygon id="path-7" points="1.875e-05 3.76432734e-05 3.00001875 3.76432734e-05 3.00001875 3.01146187 1.875e-05 3.01146187"></polygon>
        <polygon id="path-9" points="0.246891835 0.471484671 20.2759117 0.471484671 20.2759117 12.4098934 0.246891835 12.4098934"></polygon>
        <polygon id="path-11" points="0 0.315819967 90.854431 0.315819967 90.854431 26.4775928 0 26.4775928"></polygon>
        <polygon id="path-13" points="0 0.129029354 61.9395597 0.129029354 61.9395597 65.741683 0 65.741683"></polygon>
        <polygon id="path-15" points="0 65.7418121 61.9395597 65.7418121 61.9395597 0.129158513 0 0.129158513"></polygon>
    </defs>
    <g id="Page-1" stroke="none" stroke-width="1" fill="none" fill-rule="evenodd">
        <g id="Artboard" transform="translate(-1044.000000, -1244.000000)">
            <g id="prestamos-personales-en-linea-subvertical" transform="translate(1044.000000, 1244.000000)">
                <path d="M137.122058,8.81634252 C61.6294159,38.6922512 90.8804515,68.7349481 23.0791242,121.17619 C-35.4988693,166.483603 32.4682827,229.1663 61.5008764,233.094389 C119.508034,240.942714 143.709644,310 194.552175,310 C245.394706,310 283.840453,230.072487 324.976747,233.094389 C330.527036,233.502117 413.569659,233.502117 386.641869,141.057171 C376.980429,107.888789 340.25501,71.5634839 309.379686,68.7349481 C253.73808,63.6375351 249.112971,40.1655192 248.374022,37.250927 C247.635074,34.3363348 212.6147,-21.0595661 137.122058,8.81634252 Z" id="Path-2-Copy-2" fill="#D2DADE" opacity="0.346330915"></path>
                <g id="Group-26" transform="translate(83.000000, 39.000000)" fill="#D5D9E5">
                    <path d="M27.0841145,15.7401446 C27.0897434,22.0523531 21.9811376,27.1632079 15.6717085,27.1575747 C9.36227934,27.1519322 4.24454254,22.0319394 4.2389043,15.7197309 C4.23327537,9.40752232 9.34188123,4.29666749 15.6513104,4.30230073 C21.9607395,4.30794328 27.0784763,9.42793602 27.0841145,15.7401446" id="Fill-24" transform="translate(15.661509, 15.729938) rotate(118.000000) translate(-15.661509, -15.729938) "></path>
                </g>
                <g id="Group-26-Copy" transform="translate(337.867917, 240.966477) rotate(14.000000) translate(-337.867917, -240.966477) translate(325.867917, 228.966477)" fill="#D5D9E5">
                    <path d="M20.6074784,11.976197 C20.6117613,16.7789643 16.7247786,20.6676582 11.924126,20.6633721 C7.12347341,20.6590788 3.22954324,16.7634322 3.22525327,11.9606648 C3.22097039,7.15789742 7.10795311,3.26920353 11.9086057,3.27348968 C16.7092583,3.27778293 20.6031885,7.17342958 20.6074784,11.976197" id="Fill-24" transform="translate(11.916366, 11.968431) rotate(118.000000) translate(-11.916366, -11.968431) "></path>
                </g>
                <g id="Group-26-Copy-2" transform="translate(182.000000, 264.558447) rotate(14.000000) translate(-182.000000, -264.558447) translate(170.000000, 252.558447)" fill="#D5D9E5">
                    <path d="M20.6074784,11.976197 C20.6117613,16.7789643 16.7247786,20.6676582 11.924126,20.6633721 C7.12347341,20.6590788 3.22954324,16.7634322 3.22525327,11.9606648 C3.22097039,7.15789742 7.10795311,3.26920353 11.9086057,3.27348968 C16.7092583,3.27778293 20.6031885,7.17342958 20.6074784,11.976197" id="Fill-24" transform="translate(11.916366, 11.968431) rotate(118.000000) translate(-11.916366, -11.968431) "></path>
                </g>
                <g id="Group-26-Copy-6" transform="translate(34.877173, 125.360111) rotate(14.000000) translate(-34.877173, -125.360111) translate(22.877173, 113.360111)" fill="#D5D9E5">
                    <path d="M20.6074784,11.976197 C20.6117613,16.7789643 16.7247786,20.6676582 11.924126,20.6633721 C7.12347341,20.6590788 3.22954324,16.7634322 3.22525327,11.9606648 C3.22097039,7.15789742 7.10795311,3.26920353 11.9086057,3.27348968 C16.7092583,3.27778293 20.6031885,7.17342958 20.6074784,11.976197" id="Fill-24" transform="translate(11.916366, 11.968431) rotate(118.000000) translate(-11.916366, -11.968431) "></path>
                </g>
                <g id="Group-14" transform="translate(204.000000, 259.000000)" fill="#3E5F93">
                    <path d="M24.8651832,11.9878429 C17.6950062,11.9878429 11.8613617,17.8852725 11.8613617,25.1338483 C11.8613617,32.3824241 17.6950062,38.2798537 24.8651832,38.2798537 C32.0353603,38.2798537 37.8690048,32.3824241 37.8690048,25.1338483 C37.8690048,17.8852725 32.0353603,11.9878429 24.8651832,11.9878429 M24.8651832,43.5382559 C14.8277616,43.5382559 6.65983304,35.2831075 6.65983304,25.1338483 C6.65983304,14.9866775 14.8277616,6.72944075 24.8651832,6.72944075 C34.9026048,6.72944075 43.0705334,14.9866775 43.0705334,25.1338483 C43.0705334,35.2831075 34.9026048,43.5382559 24.8651832,43.5382559" id="Fill-12" transform="translate(24.865183, 25.133848) rotate(118.000000) translate(-24.865183, -25.133848) "></path>
                </g>
                <g id="Group-14-Copy" transform="translate(103.000000, 79.000000)" fill="#3E5F93">
                    <path d="M16.2282395,7.55398321 C11.7468788,7.55398321 8.10085104,11.2701717 8.10085104,15.8377674 C8.10085104,20.4053632 11.7468788,24.1215517 16.2282395,24.1215517 C20.7096002,24.1215517 24.355628,20.4053632 24.355628,15.8377674 C24.355628,11.2701717 20.7096002,7.55398321 16.2282395,7.55398321 M16.2282395,27.4350654 C9.95485102,27.4350654 4.84989565,22.233191 4.84989565,15.8377674 C4.84989565,9.4436598 9.95485102,4.24046952 16.2282395,4.24046952 C22.501628,4.24046952 27.6065834,9.4436598 27.6065834,15.8377674 C27.6065834,22.233191 22.501628,27.4350654 16.2282395,27.4350654" id="Fill-12" transform="translate(16.228240, 15.837767) rotate(118.000000) translate(-16.228240, -15.837767) "></path>
                </g>
                <g id="Group-14-Copy-2" transform="translate(348.489698, 186.340445) rotate(14.000000) translate(-348.489698, -186.340445) translate(335.989698, 174.340445)" fill="#3E5F93">
                    <path d="M12.4301409,5.74759592 C8.99760933,5.74759592 6.20490718,8.57513065 6.20490718,12.0504752 C6.20490718,15.5258198 8.99760933,18.3533545 12.4301409,18.3533545 C15.8626725,18.3533545 18.6553746,15.5258198 18.6553746,12.0504752 C18.6553746,8.57513065 15.8626725,5.74759592 12.4301409,5.74759592 M12.4301409,20.8745063 C7.62499227,20.8745063 3.71481369,16.9165584 3.71481369,12.0504752 C3.71481369,7.18539333 7.62499227,3.2264442 12.4301409,3.2264442 C17.2352895,3.2264442 21.1454681,7.18539333 21.1454681,12.0504752 C21.1454681,16.9165584 17.2352895,20.8745063 12.4301409,20.8745063" id="Fill-12" transform="translate(12.430141, 12.050475) rotate(118.000000) translate(-12.430141, -12.050475) "></path>
                </g>
                <g id="Group-14-Copy-3" transform="translate(357.941675, 219.920683) rotate(14.000000) translate(-357.941675, -219.920683) translate(349.441675, 211.920683)" fill="#3E5F93">
                    <path d="M8.2867606,3.7769916 C5.99840622,3.7769916 4.13660479,5.63508586 4.13660479,7.91888372 C4.13660479,10.2026816 5.99840622,12.0607758 8.2867606,12.0607758 C10.575115,12.0607758 12.4369164,10.2026816 12.4369164,7.91888372 C12.4369164,5.63508586 10.575115,3.7769916 8.2867606,3.7769916 M8.2867606,13.7175327 C5.08332818,13.7175327 2.47654246,11.1165955 2.47654246,7.91888372 C2.47654246,4.7218299 5.08332818,2.12023476 8.2867606,2.12023476 C11.490193,2.12023476 14.0969787,4.7218299 14.0969787,7.91888372 C14.0969787,11.1165955 11.490193,13.7175327 8.2867606,13.7175327" id="Fill-12" transform="translate(8.286761, 7.918884) rotate(118.000000) translate(-8.286761, -7.918884) "></path>
                </g>
                <g id="Group-14-Copy-15" transform="translate(62.278188, 82.321560) rotate(14.000000) translate(-62.278188, -82.321560) translate(53.778188, 74.321560)" fill="#3E5F93">
                    <path d="M8.2867606,3.7769916 C5.99840622,3.7769916 4.13660479,5.63508586 4.13660479,7.91888372 C4.13660479,10.2026816 5.99840622,12.0607758 8.2867606,12.0607758 C10.575115,12.0607758 12.4369164,10.2026816 12.4369164,7.91888372 C12.4369164,5.63508586 10.575115,3.7769916 8.2867606,3.7769916 M8.2867606,13.7175327 C5.08332818,13.7175327 2.47654246,11.1165955 2.47654246,7.91888372 C2.47654246,4.7218299 5.08332818,2.12023476 8.2867606,2.12023476 C11.490193,2.12023476 14.0969787,4.7218299 14.0969787,7.91888372 C14.0969787,11.1165955 11.490193,13.7175327 8.2867606,13.7175327" id="Fill-12" transform="translate(8.286761, 7.918884) rotate(118.000000) translate(-8.286761, -7.918884) "></path>
                </g>
                <g id="Group-14-Copy-16" transform="translate(270.500000, 41.558447) rotate(14.000000) translate(-270.500000, -41.558447) translate(262.000000, 33.558447)" fill="#3E5F93">
                    <path d="M8.2867606,3.7769916 C5.99840622,3.7769916 4.13660479,5.63508586 4.13660479,7.91888372 C4.13660479,10.2026816 5.99840622,12.0607758 8.2867606,12.0607758 C10.575115,12.0607758 12.4369164,10.2026816 12.4369164,7.91888372 C12.4369164,5.63508586 10.575115,3.7769916 8.2867606,3.7769916 M8.2867606,13.7175327 C5.08332818,13.7175327 2.47654246,11.1165955 2.47654246,7.91888372 C2.47654246,4.7218299 5.08332818,2.12023476 8.2867606,2.12023476 C11.490193,2.12023476 14.0969787,4.7218299 14.0969787,7.91888372 C14.0969787,11.1165955 11.490193,13.7175327 8.2867606,13.7175327" id="Fill-12" transform="translate(8.286761, 7.918884) rotate(118.000000) translate(-8.286761, -7.918884) "></path>
                </g>
                <g id="Group-14-Copy-14" transform="translate(180.528188, 299.104026) rotate(14.000000) translate(-180.528188, -299.104026) translate(172.028188, 291.104026)" fill="#3E5F93">
                    <path d="M8.2867606,3.7769916 C5.99840622,3.7769916 4.13660479,5.63508586 4.13660479,7.91888372 C4.13660479,10.2026816 5.99840622,12.0607758 8.2867606,12.0607758 C10.575115,12.0607758 12.4369164,10.2026816 12.4369164,7.91888372 C12.4369164,5.63508586 10.575115,3.7769916 8.2867606,3.7769916 M8.2867606,13.7175327 C5.08332818,13.7175327 2.47654246,11.1165955 2.47654246,7.91888372 C2.47654246,4.7218299 5.08332818,2.12023476 8.2867606,2.12023476 C11.490193,2.12023476 14.0969787,4.7218299 14.0969787,7.91888372 C14.0969787,11.1165955 11.490193,13.7175327 8.2867606,13.7175327" id="Fill-12" transform="translate(8.286761, 7.918884) rotate(118.000000) translate(-8.286761, -7.918884) "></path>
                </g>
                <path d="M135.001116,72 C132.790756,72 131,70.2086665 131,68 C131,65.7913335 132.790756,64 135.001116,64 C137.209988,64 139,65.7913335 139,68 C139,70.2086665 137.209988,72 135.001116,72 L135.001116,72 Z M147,69.7857004 L147,65.5963668 L143.523187,65.3073959 C143.373478,64.7599896 143.170142,64.2349265 142.918394,63.7389094 L145.248931,60.9847484 L142.286788,58.0213069 L139.621826,60.2772165 C139.137694,60.0001619 138.623769,59.7707726 138.08601,59.5950068 L137.785848,56 L133.597733,56 L133.307999,59.4773331 C132.758323,59.6262872 132.234715,59.831099 131.738666,60.0828314 L128.984326,57.7524448 L126.021438,60.713652 L128.277494,63.3784405 C128.000421,63.8625413 127.771017,64.3764329 127.594495,64.9149019 L124,65.2150444 L124,69.4036332 L127.478303,69.6933489 C127.626522,70.2407551 127.829858,70.7658183 128.083096,71.2610906 L125.752558,74.0152516 L128.713957,76.9779483 L131.378174,74.7227835 C131.862306,74.9998381 132.376975,75.2292274 132.914734,75.4049932 L133.215641,79 L137.405246,79 L137.692746,75.5234117 C138.241677,75.3737128 138.76603,75.1681562 139.261334,74.9171686 L142.016418,77.2468104 L144.978562,74.2856033 L142.723251,71.6215595 C143.000324,71.1374587 143.229728,70.6228224 143.405505,70.0843533 L147,69.7857004 Z" id="Fill-1" fill="#1464A5" opacity="0.182710193"></path>
                <path d="M263.501255,252.558447 C261.014601,252.558447 259,250.543197 259,248.058447 C259,245.573697 261.014601,243.558447 263.501255,243.558447 C265.986236,243.558447 268,245.573697 268,248.058447 C268,250.543197 265.986236,252.558447 263.501255,252.558447 L263.501255,252.558447 Z M277,250.142282 L277,245.406514 L273.069689,245.079851 C272.900453,244.461044 272.670596,243.867494 272.38601,243.306779 L275.020531,240.19338 L271.672021,236.843403 L268.659456,239.393561 C268.112176,239.080369 267.531218,238.82106 266.923316,238.622368 L266.584003,234.558447 L261.849611,234.558447 L261.522085,238.489345 C260.900712,238.657728 260.308808,238.889255 259.748057,239.173822 L256.634456,236.539472 L253.285104,239.886923 L255.835427,242.899293 C255.522215,243.446537 255.262889,244.027458 255.063342,244.636162 L251,244.975454 L251,249.71038 L254.931995,250.037885 C255.099547,250.656692 255.329404,251.250242 255.615674,251.810115 L252.981153,254.923514 L256.328821,258.272649 L259.340544,255.723333 C259.887824,256.036525 260.469624,256.295834 261.077526,256.494526 L261.417681,260.558447 L266.153756,260.558447 L266.478756,256.628391 C267.099288,256.459166 267.692034,256.226797 268.251943,255.943072 L271.366386,258.576581 L274.714896,255.229129 L272.165415,252.217601 C272.478627,251.670357 272.737953,251.088594 272.936658,250.47989 L277,250.142282 Z" id="Fill-1-Copy-2" fill="#1464A5" opacity="0.182710193"></path>
                <path d="M137.15788,287.197122 C133.928683,287.197122 131.3125,284.585728 131.3125,281.365948 C131.3125,278.146169 133.928683,275.534774 137.15788,275.534774 C140.384904,275.534774 143,278.146169 143,281.365948 C143,284.585728 140.384904,287.197122 137.15788,287.197122 L137.15788,287.197122 Z M154,284.295364 L154,278.297516 L149.011528,277.883798 C148.796729,277.100079 148.504987,276.348349 148.143782,275.638204 L151.487597,271.695086 L147.237565,267.452342 L143.413925,270.682116 C142.719301,270.285458 141.98193,269.957043 141.210363,269.7054 L140.779696,264.558447 L134.770661,264.558447 L134.354955,269.536927 C133.566289,269.750184 132.815026,270.043412 132.103303,270.403816 L128.151425,267.067413 L123.900324,271.306958 L127.137273,275.122122 C126.739734,275.815207 126.410589,276.550943 126.157319,277.321866 L121,277.751579 L121,283.74836 L125.990609,284.163144 C126.203271,284.946863 126.495013,285.698593 126.858355,286.407672 L123.51454,290.35079 L127.763504,294.592468 L131.586075,291.36376 C132.280699,291.760418 133.019139,292.088833 133.790706,292.340476 L134.222442,297.487429 L140.233614,297.487429 L140.646114,292.510016 C141.433711,292.295692 142.186043,292.001398 142.896697,291.64206 L146.849644,294.977397 L151.099676,290.737852 L147.863795,286.923754 C148.261334,286.230669 148.590479,285.493867 148.842681,284.722944 L154,284.295364 Z" id="Fill-1-Copy-15" fill="#1464A5" opacity="0.182710193"></path>
                <path d="M260.15788,88.1971223 C256.928683,88.1971223 254.3125,85.585728 254.3125,82.3659483 C254.3125,79.1461686 256.928683,76.5347744 260.15788,76.5347744 C263.384904,76.5347744 266,79.1461686 266,82.3659483 C266,85.585728 263.384904,88.1971223 260.15788,88.1971223 L260.15788,88.1971223 Z M277,85.2953637 L277,79.2975162 L272.011528,78.883798 C271.796729,78.1000793 271.504987,77.3483491 271.143782,76.6382039 L274.487597,72.6950857 L270.237565,68.4523417 L266.413925,71.682116 C265.719301,71.2854583 264.98193,70.9570428 264.210363,70.7053998 L263.779696,65.558447 L257.770661,65.558447 L257.354955,70.5369269 C256.566289,70.7501837 255.815026,71.0434118 255.103303,71.4038158 L251.151425,68.0674132 L246.900324,72.3069584 L250.137273,76.1221225 C249.739734,76.8152071 249.410589,77.550943 249.157319,78.3218664 L244,78.7515788 L244,84.74836 L248.990609,85.1631444 C249.203271,85.9468632 249.495013,86.6985934 249.858355,87.4076722 L246.51454,91.3507904 L250.763504,95.5924682 L254.586075,92.3637602 C255.280699,92.7604179 256.019139,93.0888333 256.790706,93.3404764 L257.222442,98.4874292 L263.233614,98.4874292 L263.646114,93.5100155 C264.433711,93.2956924 265.186043,93.0013981 265.896697,92.6420604 L269.849644,95.9773967 L274.099676,91.7378515 L270.863795,87.9237537 C271.261334,87.2306691 271.590479,86.4938669 271.842681,85.7229435 L277,85.2953637 Z" id="Fill-1-Copy-16" fill="#1464A5" opacity="0.182710193"></path>
                <path d="M25.9698049,175.795423 C23.8803241,175.795423 22.1875,174.105697 22.1875,172.02231 C22.1875,169.938923 23.8803241,168.249197 25.9698049,168.249197 C28.0578792,168.249197 29.75,169.938923 29.75,172.02231 C29.75,174.105697 28.0578792,175.795423 25.9698049,175.795423 L25.9698049,175.795423 Z M36.625,173.724566 L36.625,169.975911 L33.5072053,169.717337 C33.3729558,169.227513 33.1906169,168.757682 32.964864,168.313841 L35.0547482,165.849392 L32.398478,163.197677 L30.008703,165.216286 C29.5745628,164.968375 29.1137063,164.763115 28.6314767,164.605838 L28.3623097,161.388993 L24.6066629,161.388993 L24.3468467,164.500543 C23.8539305,164.633828 23.3843912,164.817096 22.9395644,165.042348 L20.4696405,162.957097 L17.8127024,165.606812 L19.8357958,167.99129 C19.587334,168.424468 19.3816184,168.884303 19.2233242,169.36613 L16,169.6347 L16,173.382688 L19.1191305,173.641929 C19.2520442,174.131753 19.4343831,174.601584 19.6614718,175.044759 L17.5715876,177.509207 L20.2271899,180.160256 L22.616297,178.142314 C23.0504372,178.390225 23.5119616,178.595484 23.9941912,178.752761 L24.2640261,181.969607 L28.0210087,181.969607 L28.2788212,178.858723 C28.7710695,178.724771 29.2412767,178.540837 29.6854356,178.316251 L32.1560274,180.400836 L34.8122976,177.751121 L32.7898721,175.36731 C33.0383339,174.934132 33.2440495,174.47363 33.4016758,173.991803 L36.625,173.724566 Z" id="Fill-1-Copy-3" fill="#1464A5" opacity="0.182710193"></path>
                <path d="M290.000837,44.558447 C288.343067,44.558447 287,43.2149469 287,41.558447 C287,39.9019471 288.343067,38.558447 290.000837,38.558447 C291.657491,38.558447 293,39.9019471 293,41.558447 C293,43.2149469 291.657491,44.558447 290.000837,44.558447 L290.000837,44.558447 Z M299,42.7478777 L299,39.6514138 L296.430181,39.4378266 C296.319527,39.0332219 296.169236,38.6451318 295.983161,38.2785105 L297.705732,36.2428262 L295.516321,34.0524565 L293.546567,35.7198679 C293.188731,35.5150884 292.808873,35.3455398 292.411399,35.2156259 L292.18954,32.558447 L289.093977,32.558447 L288.879825,35.1286497 C288.473543,35.2387462 288.086528,35.3901289 287.719883,35.576192 L285.684067,33.8537323 L283.494106,36.0424506 L285.161626,38.0120769 C284.956833,38.3698906 284.787273,38.7497235 284.656801,39.1477223 L282,39.3695667 L282,42.4654802 L284.57092,42.6796179 C284.680473,43.0842225 284.830764,43.4723127 285.01794,43.8383835 L283.295369,45.8740677 L285.484229,48.0638871 L287.453433,46.3970261 C287.811269,46.6018056 288.191677,46.7713542 288.589152,46.9012681 L288.811561,49.558447 L291.908225,49.558447 L292.120725,46.9887948 C292.526457,46.8781478 292.914022,46.7262146 293.280117,46.540702 L295.316483,48.2626112 L297.505894,46.0738929 L295.838925,44.1048171 C296.043718,43.7470034 296.213277,43.36662 296.343199,42.9686212 L299,42.7478777 Z" id="Fill-1-Copy-23" fill="#1464A5" opacity="0.182710193"></path>
                <path d="M80.000837,129.558447 C78.3430671,129.558447 77,128.214947 77,126.558447 C77,124.901947 78.3430671,123.558447 80.000837,123.558447 C81.6574909,123.558447 83,124.901947 83,126.558447 C83,128.214947 81.6574909,129.558447 80.000837,129.558447 L80.000837,129.558447 Z M89,127.747878 L89,124.651414 L86.4301813,124.437827 C86.3195272,124.033222 86.1692358,123.645132 85.9831606,123.27851 L87.7057319,121.242826 L85.5163212,119.052456 L83.5465674,120.719868 C83.1887306,120.515088 82.8088731,120.34554 82.411399,120.215626 L82.1895402,117.558447 L79.0939767,117.558447 L78.8798251,120.12865 C78.4735427,120.238746 78.0865285,120.390129 77.7198834,120.576192 L75.6840674,118.853732 L73.4941062,121.042451 L75.1616256,123.012077 C74.9568329,123.369891 74.7872733,123.749723 74.6568005,124.147722 L72,124.369567 L72,127.46548 L74.5709197,127.679618 C74.6804728,128.084223 74.8307642,128.472313 75.0179404,128.838384 L73.2953692,130.874068 L75.4842293,133.063887 L77.4534326,131.397026 C77.8112694,131.601806 78.1916775,131.771354 78.5891516,131.901268 L78.8115609,134.558447 L81.9082254,134.558447 L82.1207254,131.988795 C82.5264573,131.878148 82.914022,131.726215 83.2801166,131.540702 L85.3164832,133.262611 L87.5058938,131.073893 L85.8389249,129.104817 C86.0437176,128.747003 86.2132772,128.36662 86.3431995,127.968621 L89,127.747878 Z" id="Fill-1-Copy-24" fill="#1464A5" opacity="0.182710193"></path>
                <path d="M301.000837,200.558447 C299.343067,200.558447 298,199.214947 298,197.558447 C298,195.901947 299.343067,194.558447 301.000837,194.558447 C302.657491,194.558447 304,195.901947 304,197.558447 C304,199.214947 302.657491,200.558447 301.000837,200.558447 L301.000837,200.558447 Z M310,198.747878 L310,195.651414 L307.430181,195.437827 C307.319527,195.033222 307.169236,194.645132 306.983161,194.27851 L308.705732,192.242826 L306.516321,190.052456 L304.546567,191.719868 C304.188731,191.515088 303.808873,191.34554 303.411399,191.215626 L303.18954,188.558447 L300.093977,188.558447 L299.879825,191.12865 C299.473543,191.238746 299.086528,191.390129 298.719883,191.576192 L296.684067,189.853732 L294.494106,192.042451 L296.161626,194.012077 C295.956833,194.369891 295.787273,194.749723 295.656801,195.147722 L293,195.369567 L293,198.46548 L295.57092,198.679618 C295.680473,199.084223 295.830764,199.472313 296.01794,199.838384 L294.295369,201.874068 L296.484229,204.063887 L298.453433,202.397026 C298.811269,202.601806 299.191677,202.771354 299.589152,202.901268 L299.811561,205.558447 L302.908225,205.558447 L303.120725,202.988795 C303.526457,202.878148 303.914022,202.726215 304.280117,202.540702 L306.316483,204.262611 L308.505894,202.073893 L306.838925,200.104817 C307.043718,199.747003 307.213277,199.36662 307.343199,198.968621 L310,198.747878 Z" id="Fill-1-Copy-25" fill="#1464A5" opacity="0.182710193"></path>
                <g id="cuentas-de-nomina-con-banca-movil" transform="translate(115.000000, 78.000000)">
                    <g id="Group-11">
                        <path d="M76.2061441,129.272007 C73.4506406,129.272007 70.9746187,127.396227 70.0457531,124.604432 L69.7051572,123.581174 L30.602739,123.581174 C29.4201241,123.581174 28.4941176,122.577661 28.4941176,121.296555 C28.4941176,120.015837 29.4201241,119.012324 30.602739,119.012324 L71.7387259,119.012324 C72.9195539,119.012324 73.8616431,120.028226 73.8830867,121.325205 L73.8830867,122.148303 C73.8830867,123.533166 74.9631297,124.703157 76.2418835,124.703157 L98.82915,124.703157 C100.107546,124.703157 101.187947,123.533166 101.187947,122.148303 L101.187947,121.296555 C101.187947,120.015837 102.114311,119.012324 103.296568,119.012324 L144.432555,119.012324 C145.614813,119.012324 146.541176,120.015837 146.541176,121.296555 C146.541176,122.577661 145.614813,123.581174 144.432555,123.581174 L105.294398,123.581174 L104.953802,124.604432 C104.024579,127.396227 101.548914,129.272007 98.7934106,129.272007 L76.2061441,129.272007 Z" id="Fill-1" fill="#000000"></path>
                        <g id="Group-5" transform="translate(0.000000, 32.830986)">
                            <mask id="mask-2" fill="white">
                                <use xlink:href="#path-1"></use>
                            </mask>
                            <g id="Clip-4"></g>
                            <path d="M14.7570075,112.856514 C6.61991843,112.856514 7.16356108e-05,106.106672 7.16356108e-05,97.8093441 L7.16356108e-05,89.2264053 C7.16356108e-05,88.0178545 0.928110973,87.0711746 2.11332215,87.0711746 L12.822846,87.0711746 L12.822846,2.30095805 C12.822846,1.09277246 13.7508853,0.146092575 14.9360965,0.146092575 C16.1209495,0.146092575 17.049347,1.09277246 17.049347,2.30095805 L17.049347,89.2264053 C17.049347,90.4345909 16.1209495,91.3812708 14.9360965,91.3812708 L4.22657267,91.3812708 L4.22657267,97.8093441 C4.22657267,103.730111 8.95058302,108.547148 14.7570075,108.547148 L157.956593,108.547148 C163.763018,108.547148 168.487028,103.730111 168.487028,97.8093441 L168.487028,91.3812708 L157.777504,91.3812708 C156.592293,91.3812708 155.628436,90.4148684 155.628436,89.2264053 L155.628436,2.30095805 C155.628436,1.09277246 156.556834,0.146092575 157.741687,0.146092575 C158.92654,0.146092575 159.854937,1.09277246 159.854937,2.30095805 L159.854937,87.0711746 L170.600279,87.0711746 C171.785132,87.0711746 172.713529,88.0178545 172.713529,89.2264053 L172.713529,97.8093441 C172.713529,106.106672 166.093682,112.856514 157.956593,112.856514 L14.7570075,112.856514 Z" id="Fill-3" fill="#000000" mask="url(#mask-2)"></path>
                        </g>
                        <path d="M80.8562607,53.3503521 C80.3112636,53.3503521 79.7555803,53.1048407 79.3701641,52.6936282 L69.8280843,42.4361168 C68.9920658,41.5445228 68.990641,40.1505046 69.8238098,39.2611909 C70.2266802,38.831736 70.7545793,38.5949657 71.3099064,38.5949657 C71.8655897,38.5949657 72.3931327,38.831736 72.7960031,39.2611909 L80.8868945,47.93694 L102.236176,25.2784432 C102.632279,24.8554491 103.159109,24.6232394 103.720492,24.6232394 C104.287217,24.6232394 104.816541,24.854689 105.210863,25.2754028 C105.613377,25.7052378 105.835294,26.2680897 105.835294,26.8609655 C105.835294,27.4534613 105.613377,28.0166933 105.210863,28.4461482 L82.345207,52.6902077 C81.9270197,53.1135818 81.3962709,53.3503521 80.8562607,53.3503521" id="Fill-6" fill="#8CBE28"></path>
                        <g id="Group-10" transform="translate(30.529412, 0.000000)">
                            <mask id="mask-4" fill="white">
                                <use xlink:href="#path-3"></use>
                            </mask>
                            <g id="Clip-9"></g>
                            <path d="M11.8440265,4.41031619 C7.76214562,4.41031619 4.44146478,7.78994768 4.44146478,11.9442924 L4.44146478,65.0128861 C4.44146478,69.1672308 7.76214562,72.5468623 11.8440265,72.5468623 L19.138258,72.5468623 C20.3331397,72.5468623 21.2687513,73.4990834 21.2687513,74.7151774 L21.2687513,93.1421808 L38.1415365,73.2881321 C38.5470524,72.8100002 39.1208413,72.5468623 39.7571005,72.5468623 L100.133116,72.5468623 C104.214996,72.5468623 107.535677,69.1672308 107.535677,65.0128861 L107.535677,63.5428419 L107.499567,63.5428419 L107.499567,11.9442924 C107.499567,7.78994768 104.178886,4.41031619 100.097006,4.41031619 L11.8440265,4.41031619 Z M20.9076507,98.2358838 C18.7771574,98.2358838 17.0438746,96.4883688 17.0438746,94.3406343 L17.0438746,76.8834926 L11.8801365,76.8834926 C5.44893537,76.8834926 0.216588121,71.5582576 0.216588121,65.0128861 L0.216588121,11.9442924 C0.216588121,5.39892088 5.44893537,0.0736859628 11.8801365,0.0736859628 L100.133116,0.0736859628 C106.564317,0.0736859628 111.796664,5.39892088 111.796664,11.9442924 L111.796664,65.0128861 C111.796664,71.5582576 106.564317,76.8834926 100.133116,76.8834926 L40.757349,76.8834926 L23.7867056,96.8698453 C23.0626989,97.7393764 22.014424,98.2358838 20.9076507,98.2358838 L20.9076507,98.2358838 Z" id="Fill-8" fill="#000000" mask="url(#mask-4)"></path>
                        </g>
                    </g>
                    <g id="Group-21-Copy" transform="translate(112.189961, 86.449288) rotate(-5.000000) translate(-112.189961, -86.449288) translate(78.189961, 52.949288)">
                        <g id="Group-4" transform="translate(33.994357, 33.635333) rotate(7.000000) translate(-33.994357, -33.635333) translate(3.994357, 4.135333)">
                            <path d="M35.4439345,53.5914498 C22.1714973,56.7463702 8.8539644,48.4506766 5.75935733,35.0989219 C2.66378239,21.7461928 10.9440196,8.31602463 24.217426,5.16110279 C37.4888953,2.00520807 50.8064282,10.3009017 53.9010339,23.6536322 C56.9966103,37.0053854 48.7163731,50.4355536 35.4439345,53.5914498" id="Fill-14" fill="#8CBE28" transform="translate(29.830197, 29.376097) rotate(78.000000) translate(-29.830197, -29.376097) "></path>
                            <path d="M23.8736097,38.4173282 C21.9741591,37.2280124 20.3358544,35.728221 18.9596421,33.9169904 L21.3843523,29.4233679 C22.1277288,30.5374961 23.0096466,31.6133905 24.0272594,32.6520091 C25.0439195,33.6896579 26.0113188,34.4670907 26.9275548,34.9833348 C27.6830013,35.410129 28.2867822,35.6295565 28.7379509,35.6425809 C29.1891196,35.6556054 29.5322623,35.4459325 29.7654766,35.0125894 C29.9269413,34.7153342 29.9354104,34.3905269 29.7946919,34.0410798 C29.6530207,33.6906629 29.357104,33.2179466 28.9069418,32.6229311 C28.4558269,32.0269457 27.8275226,31.261217 27.0239252,30.3247842 C26.1221086,29.2633285 25.4674508,28.2732265 25.0590051,27.3554421 C24.6496036,26.4357211 24.4635314,25.5602091 24.5007856,24.7279395 C24.5380427,23.8966366 24.8201032,22.9926316 25.3450735,22.0178521 C26.1495418,20.5296337 27.2483977,19.6311057 28.6444935,19.3232437 C30.0405924,19.0163485 31.7348625,19.2943218 33.7282628,20.1600668 L34.7291163,18.3050961 L37.4901988,19.8625683 L36.5044525,21.6895504 C38.2203102,22.7864442 39.7653741,24.2337359 41.1386942,26.0314226 L37.4697221,28.9936267 C36.0675971,27.0972388 34.6196528,25.7275949 33.1258922,24.8856617 C32.414217,24.4851083 31.866551,24.2909938 31.4828942,24.3033183 C31.097341,24.3166035 30.8139316,24.4945616 30.62887,24.8381472 C30.468355,25.1354053 30.4398769,25.4398474 30.5434357,25.7514733 C30.648897,26.064072 30.8933618,26.4844205 31.281585,27.0144672 C31.6679087,27.544508 32.2342129,28.2259323 32.9795449,29.0577703 C34.4779721,30.7736764 35.4021096,32.2857164 35.7510108,33.594854 C36.1008618,34.9039946 35.9132146,36.230775 35.1871196,37.5751922 C34.3694435,39.0914052 33.2309061,40.0555483 31.7724604,40.4685913 C30.3121151,40.8816282 28.6152682,40.6896892 26.6790703,39.8927652 L25.270327,42.505362 L22.5082948,40.9478867 L23.8736097,38.4173282 Z" id="Fill-15" fill="#FFFFFF" transform="translate(30.049168, 30.405229) rotate(-30.000000) translate(-30.049168, -30.405229) "></path>
                        </g>
                    </g>
                    <path d="M193.247564,162.362869 L193.255825,156.800321 C197.242869,153.795704 199.832212,149.022677 199.840222,143.628378 L199.882614,115.081817 L199.588788,108.775545 C199.593804,105.397636 196.879437,102.659226 193.525068,102.664207 C190.171983,102.669186 187.450459,103.884613 187.445445,107.261227 L187.447717,105.731462 C187.452731,102.354848 184.739643,99.6203179 181.383989,99.625301 C178.034758,99.6302745 175.310967,102.372878 175.305953,105.749492 L175.310494,102.691256 C175.315504,99.3172299 172.597283,96.5788252 169.245483,96.5838025 C165.892398,96.5887818 163.17374,99.3352603 163.16873,102.709286 L163.164069,105.847764 C163.166264,104.369767 163.160704,70.9130269 163.160704,70.9130269 C163.165886,67.4238159 160.35146,64.5858994 156.884036,64.5910415 C153.414043,64.5962014 150.598884,67.4424777 150.593702,70.9316887 L150.4672,132.760404 L150.34706,129.746356 L150.365835,117.103143 C150.373499,111.941802 146.233956,107.76893 141.101552,107.776551 L138.014402,107.781136 C137.879508,107.781336 138.141572,107.7913 138.014371,107.801843 L137.997003,119.497689 C138.013702,119.498958 137.973942,119.501606 137.996989,119.506748 L137.973942,135.027007 L155.52389,156.055233 C155.52389,156.055233 160.077707,158.95916 162.883771,159.642221 L162.879664,162.407964" id="Fill-12-Copy-6" fill="#FFFFFF" transform="translate(168.928278, 113.499503) rotate(-45.000000) translate(-168.928278, -113.499503) "></path>
                    <path d="M195.062673,163.740528 L189.923846,163.748159 L189.934032,156.888806 L190.966803,156.112037 C194.486979,153.457552 196.509971,149.412715 196.516504,145.013669 L196.558895,116.467108 L196.267454,110.285077 C196.267962,108.213038 194.699118,106.631249 192.766919,106.634118 C189.27637,106.639301 189.261532,107.98013 189.260563,108.632416 L189.260554,108.638887 L184.121727,108.646518 L184.123998,107.116753 C184.126887,105.171543 182.558039,103.592342 180.62584,103.595212 C178.69621,103.598077 177.12395,105.181943 177.121061,107.127152 L171.982234,107.134783 L171.986775,104.076546 C171.989664,102.131337 170.419533,100.550844 168.487334,100.553713 C166.557704,100.556579 164.986727,102.141736 164.983838,104.086946 L164.979183,107.221541 L164.979178,107.225424 L159.84035,107.233055 C159.842545,105.755058 159.83698,72.3022004 159.83698,72.3022004 C159.840051,70.2340405 158.174994,68.5579164 156.125887,68.5609593 C154.079349,68.5639984 152.411876,70.2450713 152.408811,72.3093485 L152.282307,134.139358 L147.145891,134.253111 L147.025751,131.239063 L147.042116,118.488433 C147.047643,114.766263 144.043359,111.740968 140.343403,111.746462 L139.825667,111.747231 L139.812346,120.717454 L139.992907,122.839698 L139.809125,122.886563 L139.790452,135.461182 L156.476046,155.454026 C157.871243,156.313901 160.941648,158.069474 162.740867,158.508129 L164.701901,158.985371 L164.694773,163.785624 L159.555945,163.793255 L159.557293,162.886009 C156.777576,161.762875 153.794716,159.882928 153.391702,159.624684 L153.055428,159.410343 L134.64882,137.357077 L134.68727,111.464957 L134.539555,111.447058 L134.691792,108.419663 L134.694202,106.796714 L134.793136,106.788802 L134.803725,106.579123 L140.351091,106.569591 C142.899949,106.565806 145.262599,107.377653 147.196598,108.758297 L147.269985,72.3156854 C147.277287,67.3989523 151.252973,63.391336 156.133574,63.3840786 C161.016745,63.376837 164.983116,67.3726593 164.975813,72.2906867 C164.975813,72.2906867 164.977452,85.8941768 164.978945,96.1352968 C166.053679,95.6496645 167.245002,95.3786987 168.495022,95.3768424 C171.713212,95.3720635 174.524076,97.148729 176.006571,99.7802548 C177.346507,98.9214948 178.93386,98.4208649 180.633527,98.4183409 C183.694984,98.4137947 186.386621,100.021095 187.918246,102.442885 C189.170458,101.830156 190.770464,101.460223 192.774606,101.457247 C197.539584,101.450171 201.411027,105.351657 201.403897,110.153205 L201.695339,116.333942 L201.655331,145.006038 C201.647013,150.607412 199.263901,155.789105 195.06909,159.419135 L195.062673,163.740528 Z" id="Fill-13-Copy-2" fill="#000000" transform="translate(168.117447, 113.588667) rotate(-45.000000) translate(-168.117447, -113.588667) "></path>
                </g>
                <g id="tarjetas-para-transferir-saldo" transform="translate(51.500000, 166.500000) rotate(-270.000000) translate(-51.500000, -166.500000) translate(1.000000, 115.000000)">
                    <rect id="Rectangle" fill="#8CBE28" x="1.5" y="1.5" width="97" height="52"></rect>
                    <g id="Group-31" transform="translate(0.500000, 0.500000)">
                        <g id="Group-3">
                            <mask id="mask-6" fill="white">
                                <use xlink:href="#path-5"></use>
                            </mask>
                            <g id="Clip-2"></g>
                            <path d="M3.21287149,12.2063359 L5.08837349,11.5360482 C8.07271084,10.4698195 10.3913855,8.13362547 11.4496185,5.12673915 L12.1148795,3.23706628 L3.21287149,3.23706628 L3.21287149,12.2063359 Z M88.5502209,5.12673915 C89.6088554,8.13362547 91.9273293,10.4698195 94.9116667,11.5360482 L96.7871687,12.2063359 L96.7871687,3.23706628 L87.8851606,3.23706628 L88.5502209,5.12673915 Z M3.21287149,48.9614848 L12.1148795,48.9614848 L11.4496185,47.0720143 C10.3913855,44.0649256 8.07271084,41.7289339 5.08837349,40.6625029 L3.21287149,39.9924176 L3.21287149,48.9614848 Z M14.9865663,4.37066768 C13.8913855,9.78496487 9.71146586,13.9964671 4.33777108,15.0999227 L3.21287149,15.3307703 L3.21287149,36.8679831 L4.33777108,37.0988307 C9.71146586,38.2022864 13.8913855,42.4137886 14.9865663,47.8280857 L15.2158835,48.9614848 L84.7841566,48.9614848 L85.0134739,47.8280857 C86.1086546,42.4135862 90.2885743,38.2024887 95.6620683,37.0998423 L96.7871687,36.8687924 L96.7871687,15.3307703 L95.6620683,15.0999227 C90.2885743,13.9964671 86.1086546,9.78496487 85.0134739,4.37066768 L84.7841566,3.23706628 L15.2158835,3.23706628 L14.9865663,4.37066768 Z M94.9116667,40.6625029 C91.9273293,41.7289339 89.6088554,44.0649256 88.5502209,47.0720143 L87.8851606,48.9614848 L96.7871687,48.9614848 L96.7871687,39.9924176 L94.9116667,40.6625029 Z M1.25965863,52.1986118 C0.565080321,52.1986118 2.00803213e-05,51.6292821 2.00803213e-05,50.9294557 L2.00803213e-05,1.1383964 C2.00803213e-05,0.510596084 0.50684739,-6.06961308e-05 1.12973896,-6.06961308e-05 L99.343996,-6.06961308e-05 C99.7056426,-6.06961308e-05 100.00002,0.296541063 100.00002,0.661122489 L100.00002,51.0105862 C100.00002,51.6659021 99.4711044,52.1986118 98.8209036,52.1986118 L1.25965863,52.1986118 Z" id="Fill-1" fill="#000000" mask="url(#mask-6)"></path>
                        </g>
                        <path d="M26.5,28.1069775 C25.6729375,28.1069775 25,27.431469 25,26.6012466 C25,25.7710242 25.6729375,25.0955156 26.5,25.0955156 C27.3270625,25.0955156 28,25.7710242 28,26.6012466 C28,27.431469 27.3270625,28.1069775 26.5,28.1069775" id="Fill-4" fill="#000000"></path>
                        <path d="M73.5,28.1069775 C72.6729375,28.1069775 72,27.431469 72,26.6012466 C72,25.7710242 72.6729375,25.0955156 73.5,25.0955156 C74.3270625,25.0955156 75,25.7710242 75,26.6012466 C75,27.431469 74.3270625,28.1069775 73.5,28.1069775" id="Fill-6" fill="#000000"></path>
                        <path d="M50,15.3525507 C44.0967353,15.3525507 39.2941176,20.1735174 39.2941176,26.0993362 C39.2941176,32.0251551 44.0967353,36.8461218 50,36.8461218 C55.9032647,36.8461218 60.7058824,32.0251551 60.7058824,26.0993362 C60.7058824,20.1735174 55.9032647,15.3525507 50,15.3525507 M50,40.152825 C42.2804412,40.152825 36,33.8483886 36,26.0993362 C36,18.3502839 42.2804412,12.0458475 50,12.0458475 C57.7195588,12.0458475 64,18.3502839 64,26.0993362 C64,33.8483886 57.7195588,40.152825 50,40.152825" id="Fill-8" fill="#000000"></path>
                        <path d="M50.5,88.336215 C49.6729375,88.336215 49,87.5944801 49,86.6828634 L49,61.8825891 C49,60.9709724 49.6729375,60.2292375 50.5,60.2292375 C51.3270625,60.2292375 52,60.9709724 52,61.8825891 L52,86.6828634 C52,87.5944801 51.3270625,88.336215 50.5,88.336215" id="Fill-10" fill="#000000"></path>
                        <path d="M37.5,93.3553181 C36.6729375,93.3553181 36,92.6415732 36,91.7643571 L36,73.866046 C36,72.9888299 36.6729375,72.275085 37.5,72.275085 C38.3270625,72.275085 39,72.9888299 39,73.866046 L39,91.7643571 C39,92.6415732 38.3270625,93.3553181 37.5,93.3553181" id="Fill-12" fill="#000000"></path>
                        <g id="Group-16" transform="translate(49.000000, 97.370601)">
                            <mask id="mask-8" fill="white">
                                <use xlink:href="#path-7"></use>
                            </mask>
                            <g id="Clip-15"></g>
                            <path d="M1.50001875,3.01149952 C0.67295625,3.01149952 1.875e-05,2.33599098 1.875e-05,1.50576858 C1.875e-05,0.675546185 0.67295625,3.76432734e-05 1.50001875,3.76432734e-05 C2.32708125,3.76432734e-05 3.00001875,0.675546185 3.00001875,1.50576858 C3.00001875,2.33599098 2.32708125,3.01149952 1.50001875,3.01149952" id="Fill-14" fill="#000000" mask="url(#mask-8)"></path>
                        </g>
                        <path d="M26.5,76.2903675 C25.6729375,76.2903675 25,75.5793059 25,74.7053876 L25,62.8180381 C25,61.9441197 25.6729375,61.2330581 26.5,61.2330581 C27.3270625,61.2330581 28,61.9441197 28,62.8180381 L28,74.7053876 C28,75.5793059 27.3270625,76.2903675 26.5,76.2903675" id="Fill-17" fill="#000000"></path>
                        <path d="M26.5,88.336215 C25.6729375,88.336215 25,87.6607064 25,86.8304841 C25,86.0002617 25.6729375,85.3247531 26.5,85.3247531 C27.3270625,85.3247531 28,86.0002617 28,86.8304841 C28,87.6607064 27.3270625,88.336215 26.5,88.336215" id="Fill-19" fill="#000000"></path>
                        <path d="M73.5,76.2903675 C72.6729375,76.2903675 72,75.5793059 72,74.7053876 L72,62.8180381 C72,61.9441197 72.6729375,61.2330581 73.5,61.2330581 C74.3270625,61.2330581 75,61.9441197 75,62.8180381 L75,74.7053876 C75,75.5793059 74.3270625,76.2903675 73.5,76.2903675" id="Fill-21" fill="#000000"></path>
                        <path d="M73.5,88.336215 C72.6729375,88.336215 72,87.6607064 72,86.8304841 C72,86.0002617 72.6729375,85.3247531 73.5,85.3247531 C74.3270625,85.3247531 75,86.0002617 75,86.8304841 C75,87.6607064 74.3270625,88.336215 73.5,88.336215" id="Fill-23" fill="#000000"></path>
                        <path d="M37.5,64.24452 C36.6729375,64.24452 36,63.5690115 36,62.7387891 C36,61.9085667 36.6729375,61.2330581 37.5,61.2330581 C38.3270625,61.2330581 39,61.9085667 39,62.7387891 C39,63.5690115 38.3270625,64.24452 37.5,64.24452" id="Fill-25" fill="#000000"></path>
                        <path d="M62.5,93.3553181 C61.6729375,93.3553181 61,92.6415732 61,91.7643571 L61,73.866046 C61,72.9888299 61.6729375,72.275085 62.5,72.275085 C63.3270625,72.275085 64,72.9888299 64,73.866046 L64,91.7643571 C64,92.6415732 63.3270625,93.3553181 62.5,93.3553181" id="Fill-27" fill="#000000"></path>
                        <path d="M62.5,64.24452 C61.6729375,64.24452 61,63.5690115 61,62.7387891 C61,61.9085667 61.6729375,61.2330581 62.5,61.2330581 C63.3270625,61.2330581 64,61.9085667 64,62.7387891 C64,63.5690115 63.3270625,64.24452 62.5,64.24452" id="Fill-29" fill="#000000"></path>
                    </g>
                </g>
                <g id="Group-13-Copy-2" transform="translate(323.500000, 119.500000) rotate(-306.000000) translate(-323.500000, -119.500000) translate(278.000000, 87.000000)">
                    <g id="Group-9-Copy" transform="translate(0.000000, 0.000000)">
                        <g id="Group-3" transform="translate(34.539683, 51.707889)">
                            <mask id="mask-10" fill="white">
                                <use xlink:href="#path-9"></use>
                            </mask>
                            <g id="Clip-2"></g>
                            <path d="M2.08156444,10.46884 L2.47328508,10.820697 C4.07511365,12.2573247 6.39861841,12.7113808 8.59371683,12.217905 C9.6827327,11.9733571 10.8392025,11.9733571 11.9282184,12.217905 C14.1233168,12.7113808 16.4468216,12.2573247 18.0478375,10.820697 L18.4419962,10.46811 C21.7756851,7.47732575 20.3640279,2.30167022 15.8275454,1.15631006 C12.2118502,0.243087911 8.31252317,0.243087911 4.69520254,1.15704006 C0.159532698,2.30313021 -1.25374984,7.47805574 2.08156444,10.46884" id="Fill-1" fill="#9ABD62" mask="url(#mask-10)"></path>
                        </g>
                        <path d="M71.3367733,43.7386203 C73.9813406,41.1533681 73.6943036,36.8289055 70.6555389,34.6962221 C63.4283306,29.62446 54.7889005,26.8881023 45.7139396,26.8881023 C36.6397442,26.8881023 28.0003141,29.62446 20.7723404,34.6962221 C17.7343411,36.8289055 17.4473042,41.1533681 20.0918715,43.7386203 C22.1914512,45.7897666 25.5126603,46.1024504 27.9260672,44.4133592 C33.0843129,40.80403 39.2475708,38.8568623 45.7139396,38.8568623 C52.181074,38.8568623 58.3435664,40.80403 63.5025775,44.4133592 C65.9159844,46.1024504 69.2371935,45.7897666 71.3367733,43.7386203" id="Fill-4" fill="#9ABD62"></path>
                        <g id="Group-8">
                            <mask id="mask-12" fill="white">
                                <use xlink:href="#path-11"></use>
                            </mask>
                            <g id="Clip-7"></g>
                            <path d="M89.0374044,24.68105 C91.6268475,22.1143886 91.4230702,17.8860425 88.5934334,15.5821162 C76.4435061,5.69267219 61.352368,0.315819967 45.4275254,0.315819967 C29.5026828,0.315819967 14.4115448,5.69267219 2.26161743,15.5821162 C-0.568794189,17.8860425 -0.77179661,22.1143886 1.81764649,24.68105 C4.07314286,26.9173719 7.66597579,27.0840781 10.1322228,25.0789939 C20.0677191,16.9995033 32.4082518,12.6075239 45.4275254,12.6075239 C58.446799,12.6075239 70.7865569,16.9995033 80.7228281,25.0789939 C83.1883002,27.0840781 86.781908,26.9173719 89.0374044,24.68105" id="Fill-6" fill="#9ABD62" mask="url(#mask-12)"></path>
                        </g>
                    </g>
                </g>
                <g id="Group-13" transform="translate(154.000000, 7.000000)">
                    <g id="Group-12">
                        <g id="Group-3" transform="translate(0.000000, 0.000129)">
                            <mask id="mask-14" fill="white">
                                <use xlink:href="#path-13"></use>
                            </mask>
                            <g id="Clip-2"></g>
                            <path d="M32.5346105,65.741683 C32.1759983,65.741683 31.7920403,65.4598591 31.7920403,65.0406106 L31.7920403,62.5215029 L25.5490172,62.5215029 C23.200296,62.5215029 21.2893442,60.6276517 21.2893442,58.2996986 L21.2893442,46.8744658 L15.9520151,50.9695656 C15.8339941,51.0601057 15.692317,51.1080235 15.5425811,51.1080235 C15.183969,51.1080235 14.8000109,50.8264579 14.8000109,50.4069511 L14.8000109,46.566681 L5.70979706,46.566681 C2.56144486,46.566681 -5.19916143e-05,44.0281996 -5.19916143e-05,40.9079883 L-5.19916143e-05,31.131593 C-5.19916143e-05,30.6626184 0.359080084,30.4527358 0.714962683,30.4527358 C1.07097526,30.4527358 1.42997736,30.6626184 1.42997736,31.131593 L1.42997736,40.9078591 C1.42997736,43.2443366 3.34989769,45.1454207 5.70979706,45.1454207 L15.5148956,45.1454207 C15.909122,45.1454207 16.2299103,45.464184 16.2299103,45.8559217 L16.2299103,48.9606341 L21.0094994,45.2935656 C21.0659103,45.2504266 21.1284302,45.215683 21.1949795,45.1908845 L21.3327572,45.1392211 L21.359143,44.9953386 C21.7273736,42.9873112 23.4893694,41.5298865 25.5488872,41.5298865 L27.7968746,41.5298865 L27.8184512,41.2950763 C27.831579,41.1513229 27.837948,41.0247476 27.837948,40.9078591 L27.837948,34.7277534 L27.8357384,34.7109628 C27.8274197,34.6470294 27.8272897,34.5836125 27.8356084,34.5226497 L27.837948,34.5053425 L27.837948,23.2265753 C27.837948,20.8899687 25.9180277,18.9890137 23.5579983,18.9890137 L5.70979706,18.9890137 C3.34989769,18.9890137 1.42997736,20.8899687 1.42997736,23.2265753 L1.42997736,25.3185558 C1.42997736,25.7876595 1.07097526,25.9975421 0.714962683,25.9975421 C0.359080084,25.9975421 -5.19916143e-05,25.7876595 -5.19916143e-05,25.3185558 L-5.19916143e-05,23.2265753 C-5.19916143e-05,20.106364 2.56144486,17.5680117 5.70979706,17.5680117 L23.5578683,17.5680117 C24.0022667,17.5680117 24.4496545,17.6205793 24.8878138,17.7245519 L25.2080822,17.8004971 L25.2080822,7.11418004 C25.2080822,3.26254403 28.3702122,0.129029354 32.2571052,0.129029354 L45.9194616,0.129029354 C46.3914155,0.129029354 46.6026314,0.485894325 46.6026314,0.839530333 C46.6026314,1.19316634 46.3914155,1.55003131 45.9194616,1.55003131 L32.2571052,1.55003131 C29.158795,1.55003131 26.6381115,4.04614873 26.6381115,7.11418004 L26.6381115,18.462047 L26.7526231,18.5388963 C28.327579,19.5965753 29.2678474,21.348998 29.2678474,23.2265753 L29.2678474,34.2496086 L29.3953568,34.3245205 C30.2576377,34.8318552 31.2471681,35.0999883 32.2571052,35.0999883 L44.1232813,35.0999883 C44.5175078,35.0999883 44.838296,35.4187515 44.838296,35.8106184 L44.838296,40.0900274 L51.2109082,35.2463249 C51.3350382,35.15191 51.4893233,35.0999883 51.6454281,35.0999883 L54.8904847,35.0999883 C57.988795,35.0999883 60.5094784,32.6038708 60.5094784,29.5357104 L60.5094784,7.11418004 C60.5094784,4.04614873 57.988795,1.55003131 54.8904847,1.55003131 L52.0292562,1.55003131 C51.5573023,1.55003131 51.3459564,1.19316634 51.3459564,0.839530333 C51.3459564,0.485894325 51.5573023,0.129029354 52.0292562,0.129029354 L54.8904847,0.129029354 C58.7772478,0.129029354 61.9396377,3.26254403 61.9396377,7.11418004 L61.9396377,29.5358395 C61.9396377,33.3876047 58.7773778,36.5212485 54.8906147,36.5212485 L51.887839,36.5212485 L44.5579312,42.0922427 C44.4403002,42.1817495 44.2995329,42.2290215 44.1508369,42.2290215 C43.7922247,42.2290215 43.4083966,41.9473268 43.4083966,41.5279491 L43.4083966,36.5212485 L32.2572352,36.5212485 C31.3467321,36.5212485 30.4610549,36.3517926 29.6248998,36.0177886 L29.2683673,35.8753268 L29.2679774,36.2572485 C29.2665476,38.1968219 29.2623883,41.1293659 29.2571891,41.2583953 L29.2462709,41.5271742 L29.5167572,41.5301448 L38.2149543,41.5301448 C40.5636755,41.5301448 42.4746273,43.4241252 42.4746273,45.7520783 L42.4746273,50.5082114 C42.4746273,50.9771859 42.1154952,51.1870685 41.7596126,51.1870685 C41.4036,51.1870685 41.0445979,50.9771859 41.0445979,50.5082114 L41.0445979,45.7519491 C41.0445979,44.2076008 39.7752226,42.9511468 38.2149543,42.9511468 L25.5488872,42.9511468 C23.9886189,42.9511468 22.7192436,44.2076008 22.7192436,45.7519491 L22.7192436,58.2995695 C22.7192436,59.8439178 23.9886189,61.1003718 25.5488872,61.1003718 L32.5070549,61.1003718 C32.9012813,61.1003718 33.2220696,61.419135 33.2220696,61.8108728 L33.2220696,63.5941644 L36.2795665,61.2486458 C36.4039564,61.1531977 36.5590214,61.100501 36.716426,61.100501 L38.2149543,61.100501 C39.7752226,61.100501 41.0445979,59.844047 41.0445979,58.2996986 L41.0445979,56.5794364 C41.0445979,56.1104618 41.4036,55.9005793 41.7596126,55.9005793 C42.1154952,55.9005793 42.4746273,56.1104618 42.4746273,56.5794364 L42.4746273,58.2996986 C42.4746273,60.6276517 40.5636755,62.5215029 38.2149543,62.5215029 L36.9603966,62.5215029 L32.9439145,65.6030959 C32.8258935,65.6937652 32.6843463,65.741683 32.5346105,65.741683" id="Fill-1" fill="#000000" mask="url(#mask-14)"></path>
                        </g>
                        <path d="M53.1011933,26.848193 C53.1167908,27.1568818 52.9647153,27.3635354 52.87373,27.4591127 C52.7151556,27.6244356 52.5006901,27.7148466 52.271927,27.7148466 L43.0044218,27.7148466 C41.8398096,27.7148466 40.7011933,27.3144552 39.7952394,26.5860012 L39.289621,26.1791519 L39.289621,18.3960599 L43.3436671,13.8367644 C44.540774,12.4883495 45.2010675,10.7563339 45.2010675,8.95715577 C45.2010675,8.78666654 45.3414449,8.64846693 45.5156168,8.64846693 C45.626099,8.64846693 45.7300822,8.70658826 45.7859732,8.80345714 C46.6893275,10.3740247 46.8063086,12.306236 46.0979229,13.9736724 L45.328447,15.7844748 C45.2348621,16.0040442 45.2582583,16.2546117 45.3908369,16.4535159 C45.5234155,16.6511284 45.7456797,16.7712458 45.9848411,16.7712458 L52.271927,16.7906196 C52.7294532,16.7906196 53.1024931,17.1613045 53.1024931,17.6159425 C53.1024931,17.8006391 53.1011933,18.3017742 53.0985937,18.9798564 C53.084296,22.7241616 53.0738977,26.2682712 53.1011933,26.848193 L53.1011933,26.848193 Z M34.0449669,27.2886235 L37.8585518,27.2886235 L37.8585518,16.9843573 L34.0449669,16.9843573 L34.0449669,27.2886235 Z M54.5322625,17.6159425 C54.5322625,16.3773123 53.5197258,15.3698759 52.2745266,15.3698759 L47.0636671,15.3543769 L47.4159103,14.5264708 C48.2958683,12.4547683 48.1515916,10.0511284 47.0285727,8.09825166 C46.7946105,7.69269393 46.4163715,7.40337886 45.9627447,7.28326145 L45.9276503,7.27422035 C45.7989711,7.24322231 45.6663925,7.22772329 45.5351136,7.22772329 C44.5784679,7.22772329 43.7699983,8.01946497 43.7699983,8.95715577 C43.7699983,10.410189 43.2383841,11.8089757 42.27134,12.8964904 L39.3598096,16.1719503 L39.1726398,15.8878016 C39.0400612,15.6850227 38.8164973,15.5636137 38.5734365,15.5636137 L33.3300822,15.5636137 C32.9349459,15.5636137 32.6151975,15.8826352 32.6151975,16.2739855 L32.6151975,27.9989953 C32.6151975,28.3903456 32.9349459,28.7093671 33.3300822,28.7093671 L38.5734365,28.7093671 C38.8528914,28.7093671 39.1076503,28.5466274 39.2233317,28.2934767 L39.3455119,28.0287018 L39.5963715,28.1811088 C40.6245057,28.806236 41.8034155,29.1355902 43.0044218,29.1355902 L52.271927,29.1355902 C52.8750298,29.1355902 53.4677342,28.8798564 53.896665,28.4316763 C54.3281954,27.9834963 54.5582583,27.3816176 54.5296629,26.7823221 C54.5127656,26.4155119 54.5127656,23.4681147 54.5309627,18.0227918 C54.5322625,17.7838485 54.5322625,17.639191 54.5322625,17.6159425 L54.5322625,17.6159425 Z" id="Fill-4" fill="#000000"></path>
                        <mask id="mask-16" fill="white">
                            <use xlink:href="#path-15"></use>
                        </mask>
                        <g id="Clip-7"></g>
                        <polygon id="Fill-6" fill="#FFFFFF" mask="url(#mask-16)" points="34.0450189 27.2886106 37.8586038 27.2886106 37.8586038 16.9843444 34.0450189 16.9843444"></polygon>
                        <path d="M53.1011933,26.848193 C53.1167908,27.1568818 52.9647153,27.3635354 52.87373,27.4591127 C52.7151556,27.6244356 52.5006901,27.7148466 52.271927,27.7148466 L43.0044218,27.7148466 C41.8398096,27.7148466 40.7011933,27.3144552 39.7952394,26.5860012 L39.289621,26.1791519 L39.289621,18.3960599 L43.3436671,13.8367644 C44.540774,12.4883495 45.2010675,10.7563339 45.2010675,8.95715577 C45.2010675,8.78666654 45.3414449,8.64846693 45.5156168,8.64846693 C45.626099,8.64846693 45.7300822,8.70658826 45.7859732,8.80345714 C46.6893275,10.3740247 46.8063086,12.306236 46.0979229,13.9736724 L45.328447,15.7844748 C45.2348621,16.0040442 45.2582583,16.2546117 45.3908369,16.4535159 C45.5234155,16.6511284 45.7456797,16.7712458 45.9848411,16.7712458 L52.271927,16.7906196 C52.7294532,16.7906196 53.1024931,17.1613045 53.1024931,17.6159425 C53.1024931,17.8006391 53.1011933,18.3017742 53.0985937,18.9798564 C53.084296,22.7241616 53.0738977,26.2682712 53.1011933,26.848193" id="Fill-8" fill="#1464A5" mask="url(#mask-16)"></path>
                        <path d="M12.9548675,33.7796266 L15.8339031,33.7796266 L16.3131358,30.8995209 L13.4341002,30.8995209 L12.9548675,33.7796266 Z M15.716922,39.554562 C15.6779283,39.554562 15.6385447,39.5513331 15.5996809,39.5448751 C15.4109514,39.5137479 15.245878,39.4117127 15.1346159,39.2574975 C15.0234839,39.103153 14.979291,38.9150982 15.010486,38.7279476 L15.5973413,35.2007577 L12.7183057,35.2007577 L12.0929765,38.9595288 C12.0355258,39.3042528 11.7393036,39.554562 11.3886201,39.554562 C11.3496264,39.554562 11.3101128,39.5512039 11.2712491,39.544746 C11.0825195,39.5137479 10.9174461,39.4115836 10.8061841,39.2573683 C10.695052,39.1030239 10.6508591,38.9149691 10.6820541,38.7278184 L11.2689094,35.2006286 L8.08845241,35.2006286 C7.694226,35.2006286 7.37343774,34.8818654 7.37343774,34.4901276 C7.37343774,34.0983898 7.694226,33.7796266 8.08845241,33.7796266 L11.5053413,33.7794975 L11.984574,30.8995209 L8.08845241,30.8995209 C7.694226,30.8995209 7.37343774,30.5807577 7.37343774,30.18902 C7.37343774,29.7972822 7.694226,29.478519 8.08845241,29.478519 L12.2210059,29.478519 L12.846465,25.7196188 C12.9037857,25.3750239 13.199748,25.1248438 13.5500415,25.1248438 C13.5892952,25.1248438 13.6290688,25.1280728 13.6684524,25.1345307 C14.0574797,25.1984642 14.3215971,25.5648869 14.2572574,25.9513292 L13.6704021,29.4786481 L16.5494377,29.4786481 L17.1747669,25.7197479 C17.2322176,25.3750239 17.5281799,25.1248438 17.8786034,25.1248438 C17.917857,25.1248438 17.9576306,25.128202 17.9967543,25.1346599 C18.3859115,25.1985933 18.6500289,25.565016 18.5856893,25.9515875 L17.998834,29.4787773 L21.179291,29.4787773 C21.5735174,29.4787773 21.8943057,29.7974114 21.8943057,30.1892783 C21.8943057,30.581016 21.5735174,30.8997793 21.179291,30.8997793 L17.7624021,30.8997793 L17.2831694,33.7798849 L21.179291,33.7798849 C21.5735174,33.7798849 21.8943057,34.0986481 21.8943057,34.4903859 C21.8943057,34.8821237 21.5735174,35.2008869 21.179291,35.2008869 L17.0467375,35.2008869 L16.4212784,38.9596579 C16.3639577,39.3042528 16.0677354,39.554562 15.716922,39.554562 L15.716922,39.554562 Z" id="Fill-9" fill="#000000" mask="url(#mask-16)"></path>
                        <path d="M32.0068956,55.4141812 L31.8821157,55.4839268 L31.7560361,55.4141812 C28.9965811,53.9043182 27.9697468,52.7625569 27.9697468,51.2010305 C27.9697468,49.9740247 28.7002289,49.3605217 29.3839187,49.1964904 C29.5164973,49.1642008 29.6516755,49.147281 29.7881535,49.147281 C30.4120528,49.147281 30.9436671,49.4832223 31.2465182,50.0670188 C31.3699983,50.3046705 31.6130591,50.4519112 31.8808159,50.4519112 L31.8964134,50.4519112 C32.1706692,50.4467448 32.41373,50.2891714 32.5294113,50.0424787 C32.7867698,49.493555 33.2923883,49.1784082 33.9136881,49.1784082 C34.0488662,49.1784082 34.1840444,49.1939072 34.3166231,49.2223221 C35.030208,49.3798955 35.7944847,49.9817742 35.7944847,51.2010305 C35.7944847,52.7625569 34.7676503,53.9043182 32.0068956,55.4141812 M34.6259732,47.8351597 C34.3868117,47.7822047 34.1450507,47.756373 33.9071891,47.756373 C33.2066021,47.756373 32.5580067,47.9811088 32.035491,48.4086235 L31.8704176,48.5429483 L31.7053442,48.4073319 C31.167231,47.968193 30.4874407,47.725375 29.7920528,47.725375 C29.5437929,47.725375 29.2929333,47.7550814 29.0459732,47.8157859 C27.7981744,48.1167252 26.5399774,49.2791519 26.5399774,51.2010305 C26.5399774,52.4151205 26.9871052,53.4703456 27.9086566,54.4274102 C28.6794323,55.2294845 29.8024512,55.9979777 31.5467698,56.9175863 C31.6494532,56.9718329 31.7651346,57.0002477 31.8821157,57.0002477 C31.9977971,57.0002477 32.1134784,56.9718329 32.2174616,56.9175863 C35.2225769,55.3341029 37.2242541,53.7557859 37.2242541,51.2010305 C37.2242541,49.2714023 35.9192646,48.1206 34.6259732,47.8351597" id="Fill-10" fill="#000000" mask="url(#mask-16)"></path>
                        <path d="M35.7944977,51.2010047 C35.7944977,52.7625311 34.7676633,53.9042924 32.0069086,55.4141554 L31.8821287,55.483901 L31.7560491,55.4141554 C28.9965941,53.9042924 27.9697597,52.7625311 27.9697597,51.2010047 C27.9697597,49.9739988 28.7002419,49.3604959 29.3839317,49.1964646 C29.5165103,49.164175 29.6516885,49.1473843 29.7881665,49.1473843 C30.4120658,49.1473843 30.9436801,49.4831965 31.2465312,50.066993 C31.3700113,50.3047738 31.6130721,50.4518853 31.8808289,50.4518853 L31.8964264,50.4518853 C32.1706822,50.446719 32.413743,50.2891456 32.5294243,50.0424528 C32.7867828,49.4935292 33.2924013,49.1783824 33.913701,49.1783824 C34.0488792,49.1783824 34.1840574,49.1938814 34.3166361,49.2222963 C35.030221,49.3798697 35.7944977,49.9818775 35.7944977,51.2010047" id="Fill-11" fill="#F42424" mask="url(#mask-16)"></path>
                    </g>
                </g>
            </g>
        </g>
    </g>
</svg>